<?xml version="1.0" encoding="UTF-8" standalone="no"?>
<!-- Created with Inkscape (http://www.inkscape.org/) -->

<svg
   xmlns:dc="http://purl.org/dc/elements/1.1/"
   xmlns:cc="http://creativecommons.org/ns#"
   xmlns:rdf="http://www.w3.org/1999/02/22-rdf-syntax-ns#"
   xmlns:svg="http://www.w3.org/2000/svg"
   xmlns="http://www.w3.org/2000/svg"
   xmlns:sodipodi="http://sodipodi.sourceforge.net/DTD/sodipodi-0.dtd"
   xmlns:inkscape="http://www.inkscape.org/namespaces/inkscape"
   width="210mm"
   height="297mm"
   viewBox="0 0 744.09448819 1052.3622047"
   id="svg2"
   version="1.1"
   inkscape:version="0.91 r13725"
   sodipodi:docname="1-elemicella.svg">
  <defs
     id="defs4">
    <marker
       inkscape:stockid="Arrow1Lend"
       orient="auto"
       refY="0.0"
       refX="0.0"
       id="marker8472"
       style="overflow:visible;"
       inkscape:isstock="true">
      <path
         id="path8474"
         d="M 0.0,0.0 L 5.0,-5.0 L -12.5,0.0 L 5.0,5.0 L 0.0,0.0 z "
         style="fill-rule:evenodd;stroke:#000000;stroke-width:1.0pt;"
         transform="scale(0.8) rotate(180) translate(12.5,0)" />
    </marker>
    <marker
       inkscape:stockid="Arrow1Lstart"
       orient="auto"
       refY="0.0"
       refX="0.0"
       id="Arrow1Lstart"
       style="overflow:visible"
       inkscape:isstock="true">
      <path
         id="path8194"
         d="M 0.0,0.0 L 5.0,-5.0 L -12.5,0.0 L 5.0,5.0 L 0.0,0.0 z "
         style="fill-rule:evenodd;stroke:#000000;stroke-width:1pt;stroke-opacity:1;fill:#000000;fill-opacity:1"
         transform="scale(0.8) translate(12.5,0)" />
    </marker>
    <marker
       inkscape:stockid="Arrow1Lend"
       orient="auto"
       refY="0.0"
       refX="0.0"
       id="Arrow1Lend"
       style="overflow:visible;"
       inkscape:isstock="true">
      <path
         id="path8197"
         d="M 0.0,0.0 L 5.0,-5.0 L -12.5,0.0 L 5.0,5.0 L 0.0,0.0 z "
         style="fill-rule:evenodd;stroke:#000000;stroke-width:1.0pt;"
         transform="scale(0.8) rotate(180) translate(12.5,0)" />
    </marker>
  </defs>
  <sodipodi:namedview
     id="base"
     pagecolor="#ffffff"
     bordercolor="#666666"
     borderopacity="1.0"
     inkscape:pageopacity="0.0"
     inkscape:pageshadow="2"
     inkscape:zoom="1.4"
     inkscape:cx="112.11005"
     inkscape:cy="610.31573"
     inkscape:document-units="px"
     inkscape:current-layer="layer1"
     showgrid="false"
     showguides="true"
     inkscape:guide-bbox="true"
     inkscape:window-width="1920"
     inkscape:window-height="1056"
     inkscape:window-x="0"
     inkscape:window-y="24"
     inkscape:window-maximized="1">
    <sodipodi:guide
       position="202.85714,701.42859"
       orientation="1,0"
       id="guide8091" />
    <sodipodi:guide
       position="150,690.00001"
       orientation="0,1"
       id="guide8093" />
    <sodipodi:guide
       position="202.85714,614.28573"
       orientation="0,1"
       id="guide8113" />
  </sodipodi:namedview>
  <metadata
     id="metadata7">
    <rdf:RDF>
      <cc:Work
         rdf:about="">
        <dc:format>image/svg+xml</dc:format>
        <dc:type
           rdf:resource="http://purl.org/dc/dcmitype/StillImage" />
      </cc:Work>
    </rdf:RDF>
  </metadata>
  <g
     inkscape:label="Layer 1"
     inkscape:groupmode="layer"
     id="layer1">
    <path
       style="opacity:1;fill:#e0dbaf;fill-opacity:1;stroke:#000000;stroke-width:1.5;stroke-miterlimit:4;stroke-dasharray:1.5, 1.50000000000000000;stroke-dashoffset:0;stroke-opacity:1"
       id="path8068"
       sodipodi:type="arc"
       sodipodi:cx="204.28572"
       sodipodi:cy="438.07648"
       sodipodi:rx="11.428572"
       sodipodi:ry="12.857142"
       sodipodi:start="0"
       sodipodi:end="6.2398313"
       sodipodi:open="true"
       d="m 215.71429,438.07648 a 11.428572,12.857142 0 0 1 -11.3047,12.85638 11.428572,12.857142 0 0 1 -11.54976,-12.5777 11.428572,12.857142 0 0 1 11.05435,-13.12903 11.428572,12.857142 0 0 1 11.78937,12.29311" />
    <path
       style="opacity:1;fill:#e0dbaf;fill-opacity:1;stroke:#000000;stroke-width:1.5;stroke-miterlimit:4;stroke-dasharray:1.5, 1.5;stroke-dashoffset:0;stroke-opacity:1"
       id="path8068-4"
       sodipodi:type="arc"
       sodipodi:cx="290.00003"
       sodipodi:cy="365.21942"
       sodipodi:rx="11.428572"
       sodipodi:ry="12.857142"
       sodipodi:start="0"
       sodipodi:end="6.2398313"
       sodipodi:open="true"
       d="m 301.4286,365.21942 a 11.428572,12.857142 0 0 1 -11.3047,12.85639 11.428572,12.857142 0 0 1 -11.54976,-12.57771 11.428572,12.857142 0 0 1 11.05435,-13.12903 11.428572,12.857142 0 0 1 11.78937,12.29312" />
    <path
       style="opacity:1;fill:#e0dbaf;fill-opacity:1;stroke:#000000;stroke-width:1.5;stroke-miterlimit:4;stroke-dasharray:1.5, 1.50000000000000000;stroke-dashoffset:0;stroke-opacity:1"
       id="path8068-8"
       sodipodi:type="arc"
       sodipodi:cx="204.28575"
       sodipodi:cy="298.07654"
       sodipodi:rx="11.428572"
       sodipodi:ry="12.857142"
       sodipodi:start="0"
       sodipodi:end="6.2398313"
       sodipodi:open="true"
       d="m 215.71432,298.07654 a 11.428572,12.857142 0 0 1 -11.3047,12.85639 11.428572,12.857142 0 0 1 -11.54976,-12.57771 11.428572,12.857142 0 0 1 11.05435,-13.12903 11.428572,12.857142 0 0 1 11.78937,12.29311" />
    <path
       style="opacity:1;fill:#e0dbaf;fill-opacity:1;stroke:#000000;stroke-width:1.5;stroke-miterlimit:4;stroke-dasharray:1.5, 1.50000000000000000;stroke-dashoffset:0;stroke-opacity:1"
       id="path8068-88"
       sodipodi:type="arc"
       sodipodi:cx="375.71429"
       sodipodi:cy="438.07654"
       sodipodi:rx="11.428572"
       sodipodi:ry="12.857142"
       sodipodi:start="0"
       sodipodi:end="6.2398313"
       sodipodi:open="true"
       d="m 387.14287,438.07654 a 11.428572,12.857142 0 0 1 -11.30471,12.85639 11.428572,12.857142 0 0 1 -11.54975,-12.57771 11.428572,12.857142 0 0 1 11.05434,-13.12903 11.428572,12.857142 0 0 1 11.78938,12.29311" />
    <path
       style="opacity:1;fill:#e0dbaf;fill-opacity:1;stroke:#000000;stroke-width:1.5;stroke-miterlimit:4;stroke-dasharray:1.5, 1.50000000000000000;stroke-dashoffset:0;stroke-opacity:1"
       id="path8068-8-9"
       sodipodi:type="arc"
       sodipodi:cx="375.71432"
       sodipodi:cy="298.0766"
       sodipodi:rx="11.428572"
       sodipodi:ry="12.857142"
       sodipodi:start="0"
       sodipodi:end="6.2398313"
       sodipodi:open="true"
       d="m 387.1429,298.0766 a 11.428572,12.857142 0 0 1 -11.30471,12.85639 11.428572,12.857142 0 0 1 -11.54975,-12.57771 11.428572,12.857142 0 0 1 11.05434,-13.12903 11.428572,12.857142 0 0 1 11.78938,12.29312" />
    <path
       style="opacity:1;fill:#e0dbaf;fill-opacity:1;stroke:#000000;stroke-width:1.5;stroke-miterlimit:4;stroke-dasharray:1.5, 1.5;stroke-dashoffset:0;stroke-opacity:1"
       id="path8068-4-7"
       sodipodi:type="arc"
       sodipodi:cx="288.57144"
       sodipodi:cy="222.36227"
       sodipodi:rx="11.428572"
       sodipodi:ry="12.857142"
       sodipodi:start="0"
       sodipodi:end="6.2398313"
       sodipodi:open="true"
       d="m 300.00001,222.36227 a 11.428572,12.857142 0 0 1 -11.3047,12.85639 11.428572,12.857142 0 0 1 -11.54976,-12.5777 11.428572,12.857142 0 0 1 11.05435,-13.12903 11.428572,12.857142 0 0 1 11.78937,12.29311" />
    <path
       style="opacity:1;fill:#e0dbaf;fill-opacity:1;stroke:#000000;stroke-width:1.5;stroke-miterlimit:4;stroke-dasharray:1.5, 1.5;stroke-dashoffset:0;stroke-opacity:1"
       id="path8068-8-7"
       sodipodi:type="arc"
       sodipodi:cx="202.85716"
       sodipodi:cy="145.21939"
       sodipodi:rx="11.428572"
       sodipodi:ry="12.857142"
       sodipodi:start="0"
       sodipodi:end="6.2398313"
       sodipodi:open="true"
       d="m 214.28573,145.21939 a 11.428572,12.857142 0 0 1 -11.3047,12.85639 11.428572,12.857142 0 0 1 -11.54975,-12.57771 11.428572,12.857142 0 0 1 11.05434,-13.12903 11.428572,12.857142 0 0 1 11.78938,12.29312" />
    <path
       style="opacity:1;fill:#e0dbaf;fill-opacity:1;stroke:#000000;stroke-width:1.5;stroke-miterlimit:4;stroke-dasharray:1.5, 1.5;stroke-dashoffset:0;stroke-opacity:1"
       id="path8068-8-9-6"
       sodipodi:type="arc"
       sodipodi:cx="374.28571"
       sodipodi:cy="145.21945"
       sodipodi:rx="11.428572"
       sodipodi:ry="12.857142"
       sodipodi:start="0"
       sodipodi:end="6.2398313"
       sodipodi:open="true"
       d="m 385.71428,145.21945 a 11.428572,12.857142 0 0 1 -11.30471,12.85639 11.428572,12.857142 0 0 1 -11.54975,-12.57771 11.428572,12.857142 0 0 1 11.05435,-13.12902 11.428572,12.857142 0 0 1 11.78937,12.29311" />
    <path
       style="opacity:1;fill:#e0dbaf;fill-opacity:1;stroke:#000000;stroke-width:1.5;stroke-miterlimit:4;stroke-dasharray:1.5, 1.5;stroke-dashoffset:0;stroke-opacity:1"
       id="path8068-4-4"
       sodipodi:type="arc"
       sodipodi:cx="460.71429"
       sodipodi:cy="362.21939"
       sodipodi:rx="11.428572"
       sodipodi:ry="12.857142"
       sodipodi:start="0"
       sodipodi:end="6.2398313"
       sodipodi:open="true"
       d="m 472.14287,362.21939 a 11.428572,12.857142 0 0 1 -11.30471,12.85639 11.428572,12.857142 0 0 1 -11.54975,-12.57771 11.428572,12.857142 0 0 1 11.05434,-13.12903 11.428572,12.857142 0 0 1 11.78938,12.29312" />
    <path
       style="opacity:1;fill:#e0dbaf;fill-opacity:1;stroke:#000000;stroke-width:1.5;stroke-miterlimit:4;stroke-dasharray:1.5, 1.5;stroke-dashoffset:0;stroke-opacity:1"
       id="path8068-88-3"
       sodipodi:type="arc"
       sodipodi:cx="546.42859"
       sodipodi:cy="435.07651"
       sodipodi:rx="11.428572"
       sodipodi:ry="12.857142"
       sodipodi:start="0"
       sodipodi:end="6.2398313"
       sodipodi:open="true"
       d="m 557.85716,435.07651 a 11.428572,12.857142 0 0 1 -11.3047,12.85638 11.428572,12.857142 0 0 1 -11.54976,-12.5777 11.428572,12.857142 0 0 1 11.05435,-13.12903 11.428572,12.857142 0 0 1 11.78937,12.29311" />
    <path
       style="opacity:1;fill:#e0dbaf;fill-opacity:1;stroke:#000000;stroke-width:1.5;stroke-miterlimit:4;stroke-dasharray:1.5, 1.5;stroke-dashoffset:0;stroke-opacity:1"
       id="path8068-8-9-0"
       sodipodi:type="arc"
       sodipodi:cx="546.42859"
       sodipodi:cy="295.07657"
       sodipodi:rx="11.428572"
       sodipodi:ry="12.857142"
       sodipodi:start="0"
       sodipodi:end="6.2398313"
       sodipodi:open="true"
       d="m 557.85716,295.07657 a 11.428572,12.857142 0 0 1 -11.3047,12.85639 11.428572,12.857142 0 0 1 -11.54976,-12.57771 11.428572,12.857142 0 0 1 11.05435,-13.12903 11.428572,12.857142 0 0 1 11.78937,12.29311" />
    <path
       style="opacity:1;fill:#e0dbaf;fill-opacity:1;stroke:#000000;stroke-width:1.5;stroke-miterlimit:4;stroke-dasharray:1.5, 1.5;stroke-dashoffset:0;stroke-opacity:1"
       id="path8068-4-7-3"
       sodipodi:type="arc"
       sodipodi:cx="459.28571"
       sodipodi:cy="219.36226"
       sodipodi:rx="11.428572"
       sodipodi:ry="12.857142"
       sodipodi:start="0"
       sodipodi:end="6.2398313"
       sodipodi:open="true"
       d="m 470.71428,219.36226 a 11.428572,12.857142 0 0 1 -11.30471,12.85639 11.428572,12.857142 0 0 1 -11.54975,-12.57771 11.428572,12.857142 0 0 1 11.05435,-13.12903 11.428572,12.857142 0 0 1 11.78937,12.29311" />
    <path
       style="opacity:1;fill:#e0dbaf;fill-opacity:1;stroke:#000000;stroke-width:1.5;stroke-miterlimit:4;stroke-dasharray:1.5, 1.5;stroke-dashoffset:0;stroke-opacity:1"
       id="path8068-8-9-6-0"
       sodipodi:type="arc"
       sodipodi:cx="545"
       sodipodi:cy="142.21944"
       sodipodi:rx="11.428572"
       sodipodi:ry="12.857142"
       sodipodi:start="0"
       sodipodi:end="6.2398313"
       sodipodi:open="true"
       d="m 556.42857,142.21944 a 11.428572,12.857142 0 0 1 -11.3047,12.85638 11.428572,12.857142 0 0 1 -11.54976,-12.5777 11.428572,12.857142 0 0 1 11.05435,-13.12903 11.428572,12.857142 0 0 1 11.78937,12.29311" />
    <path
       style="fill:#000000;fill-opacity:1;fill-rule:evenodd;stroke:#000000;stroke-width:1.39999998;stroke-linecap:butt;stroke-linejoin:miter;stroke-miterlimit:4;stroke-dasharray:none;stroke-opacity:1;marker-start:url(#Arrow1Lstart)"
       d="m 207.14286,440.67434 c 161.42857,-13.3442 158.57142,-4.44805 158.57142,-4.44805"
       id="path8494"
       inkscape:connector-curvature="0" />
  </g>
</svg>
