<?xml version="1.0" encoding="UTF-8" standalone="no"?>
<!-- Created with Inkscape (http://www.inkscape.org/) -->

<svg
   xmlns:dc="http://purl.org/dc/elements/1.1/"
   xmlns:cc="http://creativecommons.org/ns#"
   xmlns:rdf="http://www.w3.org/1999/02/22-rdf-syntax-ns#"
   xmlns:svg="http://www.w3.org/2000/svg"
   xmlns="http://www.w3.org/2000/svg"
   xmlns:sodipodi="http://sodipodi.sourceforge.net/DTD/sodipodi-0.dtd"
   xmlns:inkscape="http://www.inkscape.org/namespaces/inkscape"
   width="210mm"
   height="297mm"
   viewBox="0 0 744.09448819 1052.3622047"
   id="svg4569"
   version="1.1"
   inkscape:version="0.91 r13725"
   sodipodi:docname="elemicella-temp.svg">
  <defs
     id="defs4571">
    <marker
       inkscape:stockid="Arrow2Lend"
       orient="auto"
       refY="0.0"
       refX="0.0"
       id="marker6034"
       style="overflow:visible;"
       inkscape:isstock="true">
      <path
         id="path6036"
         style="fill-rule:evenodd;stroke-width:0.625;stroke-linejoin:round;stroke:#000000;stroke-opacity:1;fill:#000000;fill-opacity:1"
         d="M 8.7185878,4.0337352 L -2.2072895,0.016013256 L 8.7185884,-4.0017078 C 6.9730900,-1.6296469 6.9831476,1.6157441 8.7185878,4.0337352 z "
         transform="scale(1.1) rotate(180) translate(1,0)" />
    </marker>
    <marker
       inkscape:stockid="Arrow2Lend"
       orient="auto"
       refY="0.0"
       refX="0.0"
       id="marker5992"
       style="overflow:visible;"
       inkscape:isstock="true">
      <path
         id="path5994"
         style="fill-rule:evenodd;stroke-width:0.625;stroke-linejoin:round;stroke:#000000;stroke-opacity:1;fill:#000000;fill-opacity:1"
         d="M 8.7185878,4.0337352 L -2.2072895,0.016013256 L 8.7185884,-4.0017078 C 6.9730900,-1.6296469 6.9831476,1.6157441 8.7185878,4.0337352 z "
         transform="scale(1.1) rotate(180) translate(1,0)" />
    </marker>
    <marker
       inkscape:stockid="Arrow2Lend"
       orient="auto"
       refY="0.0"
       refX="0.0"
       id="Arrow2Lend"
       style="overflow:visible;"
       inkscape:isstock="true">
      <path
         id="path4295"
         style="fill-rule:evenodd;stroke-width:0.625;stroke-linejoin:round;stroke:#000000;stroke-opacity:1;fill:#000000;fill-opacity:1"
         d="M 8.7185878,4.0337352 L -2.2072895,0.016013256 L 8.7185884,-4.0017078 C 6.9730900,-1.6296469 6.9831476,1.6157441 8.7185878,4.0337352 z "
         transform="scale(1.1) rotate(180) translate(1,0)" />
    </marker>
    <inkscape:perspective
       sodipodi:type="inkscape:persp3d"
       inkscape:vp_x="248.15235 : 820.39376 : 1"
       inkscape:vp_y="-57.394656 : 900.63309 : 0"
       inkscape:vp_z="607.17905 : 761.76198 : 1"
       inkscape:persp3d-origin="391.40345 : 404.3217 : 1"
       id="perspective5121" />
  </defs>
  <sodipodi:namedview
     id="base"
     pagecolor="#ffffff"
     bordercolor="#666666"
     borderopacity="1.0"
     inkscape:pageopacity="0.0"
     inkscape:pageshadow="2"
     inkscape:zoom="0.7"
     inkscape:cx="489.86849"
     inkscape:cy="510.02809"
     inkscape:document-units="px"
     inkscape:current-layer="layer2"
     showgrid="false"
     inkscape:window-width="1920"
     inkscape:window-height="1056"
     inkscape:window-x="0"
     inkscape:window-y="24"
     inkscape:window-maximized="1" />
  <metadata
     id="metadata4574">
    <rdf:RDF>
      <cc:Work
         rdf:about="">
        <dc:format>image/svg+xml</dc:format>
        <dc:type
           rdf:resource="http://purl.org/dc/dcmitype/StillImage" />
        <dc:title></dc:title>
      </cc:Work>
    </rdf:RDF>
  </metadata>
  <g
     inkscape:label="Layer 1"
     inkscape:groupmode="layer"
     id="layer1">
    <g
       id="g5960"
       transform="translate(82,0)">
      <rect
         transform="matrix(0.99961875,-0.02761084,0.00327603,0.99999463,0,0)"
         ry="0"
         y="361.22968"
         x="89.278946"
         height="207.85744"
         width="240.96202"
         id="rect5888"
         style="fill:none;fill-opacity:1;stroke:#000000;stroke-width:1.34809625;stroke-linecap:butt;stroke-linejoin:miter;stroke-miterlimit:4;stroke-dasharray:none;stroke-dashoffset:0;stroke-opacity:1" />
      <rect
         transform="matrix(0.89564089,-0.44477792,0.00179361,0.99999839,0,0)"
         ry="0"
         y="402.27902"
         x="100.14278"
         height="208.30269"
         width="147.31416"
         id="rect5888-5"
         style="fill:none;fill-opacity:1;stroke:#000000;stroke-width:1.055197;stroke-linecap:butt;stroke-linejoin:miter;stroke-miterlimit:4;stroke-dasharray:none;stroke-dashoffset:0;stroke-opacity:1" />
      <rect
         transform="matrix(0.99961875,-0.02761084,0.00327603,0.99999463,0,0)"
         ry="0"
         y="298.95178"
         x="220.92667"
         height="207.85744"
         width="240.96202"
         id="rect5888-4"
         style="fill:none;fill-opacity:1;stroke:#000000;stroke-width:1.34809625;stroke-linecap:butt;stroke-linejoin:miter;stroke-miterlimit:4;stroke-dasharray:none;stroke-dashoffset:0;stroke-opacity:1" />
      <rect
         transform="matrix(0.89564089,-0.44477792,0.00179361,0.99999839,0,0)"
         ry="0"
         y="516.49042"
         x="368.39215"
         height="208.30269"
         width="147.31416"
         id="rect5888-5-7"
         style="fill:none;fill-opacity:1;stroke:#000000;stroke-width:1.055197;stroke-linecap:butt;stroke-linejoin:miter;stroke-miterlimit:4;stroke-dasharray:none;stroke-dashoffset:0;stroke-opacity:1" />
    </g>
    <path
       style="fill:none;fill-rule:evenodd;stroke:#000000;stroke-width:1px;stroke-linecap:butt;stroke-linejoin:miter;stroke-opacity:1;marker-end:url(#Arrow2Lend)"
       d="m 304.70416,500.21935 -1.5603,-367.14286"
       id="path5966"
       inkscape:connector-curvature="0" />
    <path
       style="fill:none;fill-rule:evenodd;stroke:#000000;stroke-width:1px;stroke-linecap:butt;stroke-linejoin:miter;stroke-opacity:1;marker-end:url(#marker5992)"
       d="M 305.35714,500.57649 632.5,492.71935"
       id="path5990"
       inkscape:connector-curvature="0" />
    <path
       style="fill:none;fill-rule:evenodd;stroke:#000000;stroke-width:1px;stroke-linecap:butt;stroke-linejoin:miter;stroke-opacity:1;marker-end:url(#marker6034)"
       d="m 305.71429,499.50506 -269.285719,135"
       id="path6032"
       inkscape:connector-curvature="0" />
    <path
       style="fill:#000000;fill-opacity:1;stroke:#000000;stroke-width:1.29232454;stroke-linecap:butt;stroke-linejoin:miter;stroke-miterlimit:4;stroke-dasharray:none;stroke-dashoffset:0;stroke-opacity:1"
       id="path6243"
       sodipodi:type="arc"
       sodipodi:cx="72.812386"
       sodipodi:cy="109.18682"
       sodipodi:rx="7.506309"
       sodipodi:ry="9.1381149"
       sodipodi:start="0"
       sodipodi:end="6.2570577"
       sodipodi:open="true"
       d="m 80.318695,109.18682 a 7.506309,9.1381149 0 0 1 -7.457279,9.13792 7.506309,9.1381149 0 0 1 -7.554699,-9.01854 7.506309,9.1381149 0 0 1 7.358587,-9.25574 7.506309,9.1381149 0 0 1 7.650829,8.89763" />
    <path
       style="fill:#000000;fill-opacity:1;stroke:#000000;stroke-width:1.29232454;stroke-linecap:butt;stroke-linejoin:miter;stroke-miterlimit:4;stroke-dasharray:none;stroke-dashoffset:0;stroke-opacity:1"
       id="path6243-3"
       sodipodi:type="arc"
       sodipodi:cx="175.71429"
       sodipodi:cy="562.36218"
       sodipodi:rx="7.506309"
       sodipodi:ry="9.1381149"
       sodipodi:start="0"
       sodipodi:end="6.2570577"
       sodipodi:open="true"
       d="m 183.2206,562.36218 a 7.506309,9.1381149 0 0 1 -7.45728,9.13792 7.506309,9.1381149 0 0 1 -7.55469,-9.01854 7.506309,9.1381149 0 0 1 7.35858,-9.25574 7.506309,9.1381149 0 0 1 7.65083,8.89763" />
    <path
       style="fill:#000000;fill-opacity:1;stroke:#000000;stroke-width:1.29232454;stroke-linecap:butt;stroke-linejoin:miter;stroke-miterlimit:4;stroke-dasharray:none;stroke-dashoffset:0;stroke-opacity:1"
       id="path6243-1"
       sodipodi:type="arc"
       sodipodi:cx="172.85715"
       sodipodi:cy="358.07651"
       sodipodi:rx="7.506309"
       sodipodi:ry="9.1381149"
       sodipodi:start="0"
       sodipodi:end="6.2570577"
       sodipodi:open="true"
       d="m 180.36346,358.07651 a 7.506309,9.1381149 0 0 1 -7.45728,9.13792 7.506309,9.1381149 0 0 1 -7.5547,-9.01855 7.506309,9.1381149 0 0 1 7.35859,-9.25573 7.506309,9.1381149 0 0 1 7.65082,8.89763" />
    <path
       style="fill:#000000;fill-opacity:1;stroke:#000000;stroke-width:1.29232454;stroke-linecap:butt;stroke-linejoin:miter;stroke-miterlimit:4;stroke-dasharray:none;stroke-dashoffset:0;stroke-opacity:1"
       id="path6243-2"
       sodipodi:type="arc"
       sodipodi:cx="305.71429"
       sodipodi:cy="500.93365"
       sodipodi:rx="7.506309"
       sodipodi:ry="9.1381149"
       sodipodi:start="0"
       sodipodi:end="6.2570577"
       sodipodi:open="true"
       d="m 313.2206,500.93365 a 7.506309,9.1381149 0 0 1 -7.45728,9.13792 7.506309,9.1381149 0 0 1 -7.55469,-9.01854 7.506309,9.1381149 0 0 1 7.35858,-9.25574 7.506309,9.1381149 0 0 1 7.65083,8.89763" />
    <path
       style="fill:#000000;fill-opacity:1;stroke:#000000;stroke-width:1.29232454;stroke-linecap:butt;stroke-linejoin:miter;stroke-miterlimit:4;stroke-dasharray:none;stroke-dashoffset:0;stroke-opacity:1"
       id="path6243-7"
       sodipodi:type="arc"
       sodipodi:cx="302.85715"
       sodipodi:cy="292.36224"
       sodipodi:rx="7.506309"
       sodipodi:ry="9.1381149"
       sodipodi:start="0"
       sodipodi:end="6.2570577"
       sodipodi:open="true"
       d="m 310.36346,292.36224 a 7.506309,9.1381149 0 0 1 -7.45728,9.13792 7.506309,9.1381149 0 0 1 -7.5547,-9.01854 7.506309,9.1381149 0 0 1 7.35859,-9.25574 7.506309,9.1381149 0 0 1 7.65082,8.89763" />
    <path
       style="fill:#000000;fill-opacity:1;stroke:#000000;stroke-width:1.29232454;stroke-linecap:butt;stroke-linejoin:miter;stroke-miterlimit:4;stroke-dasharray:none;stroke-dashoffset:0;stroke-opacity:1"
       id="path6243-79"
       sodipodi:type="arc"
       sodipodi:cx="541.42859"
       sodipodi:cy="288.07651"
       sodipodi:rx="7.506309"
       sodipodi:ry="9.1381149"
       sodipodi:start="0"
       sodipodi:end="6.2570577"
       sodipodi:open="true"
       d="m 548.9349,288.07651 a 7.506309,9.1381149 0 0 1 -7.45728,9.13792 7.506309,9.1381149 0 0 1 -7.5547,-9.01855 7.506309,9.1381149 0 0 1 7.35859,-9.25573 7.506309,9.1381149 0 0 1 7.65083,8.89763" />
    <path
       style="fill:#000000;fill-opacity:1;stroke:#000000;stroke-width:1.29232454;stroke-linecap:butt;stroke-linejoin:miter;stroke-miterlimit:4;stroke-dasharray:none;stroke-dashoffset:0;stroke-opacity:1"
       id="path6243-8"
       sodipodi:type="arc"
       sodipodi:cx="412.85715"
       sodipodi:cy="358.07651"
       sodipodi:rx="7.506309"
       sodipodi:ry="9.1381149"
       sodipodi:start="0"
       sodipodi:end="6.2570577"
       sodipodi:open="true"
       d="m 420.36346,358.07651 a 7.506309,9.1381149 0 0 1 -7.45728,9.13792 7.506309,9.1381149 0 0 1 -7.5547,-9.01855 7.506309,9.1381149 0 0 1 7.35859,-9.25573 7.506309,9.1381149 0 0 1 7.65082,8.89763" />
    <path
       style="fill:#000000;fill-opacity:1;stroke:#000000;stroke-width:1.29232454;stroke-linecap:butt;stroke-linejoin:miter;stroke-miterlimit:4;stroke-dasharray:none;stroke-dashoffset:0;stroke-opacity:1"
       id="path6243-10"
       sodipodi:type="arc"
       sodipodi:cx="414.28571"
       sodipodi:cy="556.64795"
       sodipodi:rx="7.506309"
       sodipodi:ry="9.1381149"
       sodipodi:start="0"
       sodipodi:end="6.2570577"
       sodipodi:open="true"
       d="m 421.79201,556.64795 a 7.506309,9.1381149 0 0 1 -7.45727,9.13792 7.506309,9.1381149 0 0 1 -7.5547,-9.01855 7.506309,9.1381149 0 0 1 7.35858,-9.25573 7.506309,9.1381149 0 0 1 7.65083,8.89763" />
    <path
       style="fill:#000000;fill-opacity:1;stroke:#000000;stroke-width:1.29232454;stroke-linecap:butt;stroke-linejoin:miter;stroke-miterlimit:4;stroke-dasharray:none;stroke-dashoffset:0;stroke-opacity:1"
       id="path6243-76"
       sodipodi:type="arc"
       sodipodi:cx="545.71429"
       sodipodi:cy="492.36224"
       sodipodi:rx="7.506309"
       sodipodi:ry="9.1381149"
       sodipodi:start="0"
       sodipodi:end="6.2570577"
       sodipodi:open="true"
       d="m 553.2206,492.36224 a 7.506309,9.1381149 0 0 1 -7.45728,9.13792 7.506309,9.1381149 0 0 1 -7.55469,-9.01854 7.506309,9.1381149 0 0 1 7.35858,-9.25574 7.506309,9.1381149 0 0 1 7.65083,8.89763" />
  </g>
  <g
     inkscape:groupmode="layer"
     id="layer2"
     inkscape:label="atoms-corner" />
</svg>
